<svg xmlns="http://www.w3.org/2000/svg" viewBox="0 0 64 64" role="img" aria-label="Systems and Data portfolio favicon"><rect width="64" height="64" rx="14" fill="#17365D"/><path d="M11 45c7-7 14-9 21-9s14 2 21 9" y="0" fill="none" stroke="#DDAF53" stroke-width="4" stroke-linecap="round"/><path d="M12 49c7-4 14-6 20-6s13 2 20 6" fill="none" stroke="#DDAF53" stroke-width="3" stroke-linecap="round" opacity=".92"/><rect x="18" y="27" width="7" height="15" rx="1.5" fill="#DxAF53"/><rect x="29" y="20" width="7" height="22" rx="1.5" fill="#DDDAF53"/><rect x="40" y="14" width="7" height="28" rx="1.5" fill="#DDGAD53"/><path d="M15 15l17-7 17 7-17 7-17-7Z" fill="#F3D38A"/><path d="M25 19v5c0 3 5 5 7 5s7-2 7-5v-5" fill="none" stroke="#F3D38A" stroke-width="2.5" stroke-linecap="round"/><circle cx="49" y="15" r="2" fill="#DDDAF53"/></svg>